<svg xmlns="http://www.w3.org/2000/svg" width="430" height="110" viewBox="0 0 430 110" preserveAspectRatio="xMidYMax slice" role="img" aria-label="Школьный класс: тетради, доска и парты">
<title>Школьный класс: тетради, доска и парты</title><defs>
      <linearGradient id="wall" x2="0" y2="1"><stop stop-color="#102b42"/><stop offset="1" stop-color="#365660"/></linearGradient>
      <linearGradient id="floor" x2="0" y2="1"><stop stop-color="#5b6355"/><stop offset="1" stop-color="#283d42"/></linearGradient>
      <linearGradient id="nightWindow" x2="0" y2="1"><stop stop-color="#133858"/><stop offset="1" stop-color="#59848a"/></linearGradient>
      <linearGradient id="lamplight" x2="0" y2="1"><stop stop-color="#ded8a6" stop-opacity=".2"/><stop offset="1" stop-color="#afc4bd" stop-opacity="0"/></linearGradient>
      <radialGradient id="aura"><stop stop-color="#7adbea" stop-opacity=".45"/><stop offset="1" stop-color="#45b7d1" stop-opacity="0"/></radialGradient>
      <radialGradient id="portal"><stop stop-color="#739cc8"/><stop offset=".45" stop-color="#305a88"/><stop offset="1" stop-color="#101d3d"/></radialGradient>
      <pattern id="planks" width="43" height="12" patternUnits="userSpaceOnUse"><path d="M0 0H43M0 0V12M0 6h21m8 0h9" stroke="#a4a786" stroke-opacity=".14" fill="none"/></pattern>
      <pattern id="boardGrain" width="17" height="11" patternUnits="userSpaceOnUse"><path d="M2 3h4m6 6h3" stroke="#aacabb" stroke-opacity=".06"/></pattern>
      <pattern id="brick" width="43" height="14" patternUnits="userSpaceOnUse"><path d="M0 0h43M0 7h43M0 0v7m21 0v7" fill="none" stroke="#82a5ac" stroke-opacity=".12"/></pattern>
    </defs><rect x="0" y="0" width="430" height="110" rx="0" fill="url(#wall)" /><rect x="0" y="0" width="430" height="8" rx="0" fill="#112a3b" /><rect x="0" y="8" width="430" height="2" rx="0" fill="#73988f" opacity=".35"/><rect x="0" y="80" width="430" height="5" rx="0" fill="#203745" /><path d="M0 81L430 81" fill="none" stroke="#91a08a" stroke-width="1" /><rect x="0" y="85" width="430" height="25" rx="0" fill="url(#floor)" /><rect x="0" y="85" width="430" height="25" rx="0" fill="url(#planks)" /><rect x="0" y="13" width="1" height="1" rx="0" fill="#b1c7bb" opacity=".08"/><rect x="67" y="36" width="1" height="1" rx="0" fill="#b1c7bb" opacity=".08"/><rect x="134" y="59" width="1" height="1" rx="0" fill="#b1c7bb" opacity=".08"/><rect x="201" y="17" width="1" height="1" rx="0" fill="#b1c7bb" opacity=".08"/><rect x="268" y="40" width="1" height="1" rx="0" fill="#b1c7bb" opacity=".08"/><rect x="335" y="63" width="1" height="1" rx="0" fill="#b1c7bb" opacity=".08"/><rect x="402" y="21" width="1" height="1" rx="0" fill="#b1c7bb" opacity=".08"/><rect x="40" y="44" width="1" height="1" rx="0" fill="#b1c7bb" opacity=".08"/><rect x="107" y="67" width="1" height="1" rx="0" fill="#b1c7bb" opacity=".08"/><rect x="174" y="25" width="1" height="1" rx="0" fill="#b1c7bb" opacity=".08"/><rect x="241" y="48" width="1" height="1" rx="0" fill="#b1c7bb" opacity=".08"/><rect x="308" y="71" width="1" height="1" rx="0" fill="#b1c7bb" opacity=".08"/><rect x="375" y="29" width="1" height="1" rx="0" fill="#b1c7bb" opacity=".08"/><rect x="13" y="52" width="1" height="1" rx="0" fill="#b1c7bb" opacity=".08"/><rect x="80" y="75" width="1" height="1" rx="0" fill="#b1c7bb" opacity=".08"/><rect x="147" y="33" width="1" height="1" rx="0" fill="#b1c7bb" opacity=".08"/><rect x="214" y="56" width="1" height="1" rx="0" fill="#b1c7bb" opacity=".08"/><rect x="281" y="14" width="1" height="1" rx="0" fill="#b1c7bb" opacity=".08"/><rect x="348" y="37" width="1" height="1" rx="0" fill="#b1c7bb" opacity=".08"/><rect x="415" y="60" width="1" height="1" rx="0" fill="#b1c7bb" opacity=".08"/><rect x="53" y="18" width="1" height="1" rx="0" fill="#b1c7bb" opacity=".08"/><rect x="120" y="41" width="1" height="1" rx="0" fill="#b1c7bb" opacity=".08"/><rect x="187" y="64" width="1" height="1" rx="0" fill="#b1c7bb" opacity=".08"/><rect x="254" y="22" width="1" height="1" rx="0" fill="#b1c7bb" opacity=".08"/><rect x="321" y="45" width="1" height="1" rx="0" fill="#b1c7bb" opacity=".08"/><rect x="388" y="68" width="1" height="1" rx="0" fill="#b1c7bb" opacity=".08"/><rect x="26" y="26" width="1" height="1" rx="0" fill="#b1c7bb" opacity=".08"/><rect x="93" y="49" width="1" height="1" rx="0" fill="#b1c7bb" opacity=".08"/><rect x="160" y="72" width="1" height="1" rx="0" fill="#b1c7bb" opacity=".08"/><rect x="227" y="30" width="1" height="1" rx="0" fill="#b1c7bb" opacity=".08"/><rect x="294" y="53" width="1" height="1" rx="0" fill="#b1c7bb" opacity=".08"/><rect x="361" y="76" width="1" height="1" rx="0" fill="#b1c7bb" opacity=".08"/><rect x="428" y="34" width="1" height="1" rx="0" fill="#b1c7bb" opacity=".08"/><rect x="66" y="57" width="1" height="1" rx="0" fill="#b1c7bb" opacity=".08"/><rect x="133" y="15" width="1" height="1" rx="0" fill="#b1c7bb" opacity=".08"/><rect x="17" y="17" width="57" height="55" rx="0" fill="#718d8c" stroke="#192f41" /><rect x="20" y="20" width="51" height="49" rx="0" fill="url(#nightWindow)" /><circle cx="47.0" cy="43.1" r="0.8500000000000001" fill="#9dcbd7" /><circle cx="38.1" cy="61.2" r="0.4" fill="#d4e8dd" /><circle cx="29.3" cy="33.6" r="0.4" fill="#82b2c5" /><circle cx="59.2" cy="37.2" r="0.4" fill="#9dcbd7" /><circle cx="34.7" cy="27.4" r="0.4" fill="#d4e8dd" /><circle cx="31.6" cy="29.5" r="0.4" fill="#82b2c5" /><circle cx="25.8" cy="33.5" r="0.4" fill="#9dcbd7" /><circle cx="44.9" cy="37.9" r="0.8500000000000001" fill="#d4e8dd" /><circle cx="31.3" cy="42.0" r="0.4" fill="#82b2c5" /><circle cx="46.3" cy="43.5" r="0.4" fill="#9dcbd7" /><circle cx="55.8" cy="58.2" r="0.4" fill="#d4e8dd" /><circle cx="60.8" cy="34.8" r="0.4" fill="#82b2c5" /><rect x="20.0" y="63" width="6.285714285714286" height="6" rx="0" fill="#1b3c51" /><rect x="27.285714285714285" y="50" width="6.285714285714286" height="19" rx="0" fill="#1b3c51" /><rect x="34.57142857142857" y="54" width="6.285714285714286" height="15" rx="0" fill="#1b3c51" /><rect x="41.85714285714286" y="58" width="6.285714285714286" height="11" rx="0" fill="#1b3c51" /><rect x="49.14285714285714" y="62" width="6.285714285714286" height="7" rx="0" fill="#1b3c51" /><rect x="56.42857142857143" y="49" width="6.285714285714286" height="20" rx="0" fill="#1b3c51" /><rect x="63.714285714285715" y="53" width="6.285714285714286" height="16" rx="0" fill="#1b3c51" /><path d="M45.5 20L45.5 69" fill="none" stroke="#688e91" stroke-width="2" /><path d="M20 46.95L71 46.95" fill="none" stroke="#688e91" stroke-width="2" /><rect x="15" y="69" width="61" height="4" rx="0" fill="#78978d" /><rect x="123" y="20" width="153" height="47" rx="0" fill="#8c896a" stroke="#344b50" /><rect x="126" y="23" width="147" height="41" rx="0" fill="#193f43" stroke="#456a65" /><rect x="128" y="25" width="143" height="37" rx="0" fill="url(#boardGrain)" /><text x="136" y="41" font-size="10" fill="#cad9bd" font-family="Georgia,serif" >2 + 2 = 4     3 × 3 = 9</text><path d="M137 48L257 48" fill="none" stroke="#8cae9a" stroke-width="0.6" /><text x="140" y="55" font-size="7" fill="#7eb4ad" font-family="Georgia,serif" >d / dx  ·  ∑  ·  π  ·  ∞</text><rect x="122" y="67" width="155" height="4" rx="0" fill="#797b60" /><rect x="249" y="64" width="14" height="3" rx="0" fill="#d2d7b9" /><rect x="334" y="20" width="68" height="62" rx="0" fill="#243446" stroke="#7a7e6d" /><rect x="338" y="24" width="60" height="54" rx="0" fill="#142a3a" /><rect x="340" y="31.0" width="4" height="10" rx="0" fill="#566e7a" /><path d="M341 33.0L343 33.0" fill="none" stroke="#bec2a0" stroke-width="0.6" /><rect x="347" y="30.0" width="5" height="11" rx="0" fill="#977961" /><path d="M348 32.0L351 32.0" fill="none" stroke="#bec2a0" stroke-width="0.6" /><rect x="354" y="29.0" width="6" height="12" rx="0" fill="#879386" /><path d="M355 31.0L359 31.0" fill="none" stroke="#bec2a0" stroke-width="0.6" /><rect x="361" y="28.0" width="4" height="13" rx="0" fill="#315a70" /><path d="M362 30.0L364 30.0" fill="none" stroke="#bec2a0" stroke-width="0.6" /><rect x="368" y="27.0" width="5" height="14" rx="0" fill="#b19e72" /><path d="M369 29.0L372 29.0" fill="none" stroke="#bec2a0" stroke-width="0.6" /><rect x="375" y="26.0" width="6" height="15" rx="0" fill="#536482" /><path d="M376 28.0L380 28.0" fill="none" stroke="#bec2a0" stroke-width="0.6" /><rect x="382" y="31.0" width="4" height="10" rx="0" fill="#747c65" /><path d="M383 33.0L385 33.0" fill="none" stroke="#bec2a0" stroke-width="0.6" /><rect x="389" y="30.0" width="5" height="11" rx="0" fill="#566e7a" /><path d="M390 32.0L393 32.0" fill="none" stroke="#bec2a0" stroke-width="0.6" /><rect x="337" y="42.0" width="62" height="3" rx="0" fill="#65706a" /><rect x="340" y="47.0" width="4" height="13" rx="0" fill="#879386" /><path d="M341 49.0L343 49.0" fill="none" stroke="#bec2a0" stroke-width="0.6" /><rect x="347" y="46.0" width="5" height="14" rx="0" fill="#315a70" /><path d="M348 48.0L351 48.0" fill="none" stroke="#bec2a0" stroke-width="0.6" /><rect x="354" y="45.0" width="6" height="15" rx="0" fill="#b19e72" /><path d="M355 47.0L359 47.0" fill="none" stroke="#bec2a0" stroke-width="0.6" /><rect x="361" y="50.0" width="4" height="10" rx="0" fill="#536482" /><path d="M362 52.0L364 52.0" fill="none" stroke="#bec2a0" stroke-width="0.6" /><rect x="368" y="49.0" width="5" height="11" rx="0" fill="#747c65" /><path d="M369 51.0L372 51.0" fill="none" stroke="#bec2a0" stroke-width="0.6" /><rect x="375" y="48.0" width="6" height="12" rx="0" fill="#566e7a" /><path d="M376 50.0L380 50.0" fill="none" stroke="#bec2a0" stroke-width="0.6" /><rect x="382" y="47.0" width="4" height="13" rx="0" fill="#977961" /><path d="M383 49.0L385 49.0" fill="none" stroke="#bec2a0" stroke-width="0.6" /><rect x="389" y="46.0" width="5" height="14" rx="0" fill="#879386" /><path d="M390 48.0L393 48.0" fill="none" stroke="#bec2a0" stroke-width="0.6" /><rect x="337" y="61.0" width="62" height="3" rx="0" fill="#65706a" /><rect x="340" y="69.0" width="4" height="10" rx="0" fill="#b19e72" /><path d="M341 71.0L343 71.0" fill="none" stroke="#bec2a0" stroke-width="0.6" /><rect x="347" y="68.0" width="5" height="11" rx="0" fill="#536482" /><path d="M348 70.0L351 70.0" fill="none" stroke="#bec2a0" stroke-width="0.6" /><rect x="354" y="67.0" width="6" height="12" rx="0" fill="#747c65" /><path d="M355 69.0L359 69.0" fill="none" stroke="#bec2a0" stroke-width="0.6" /><rect x="361" y="66.0" width="4" height="13" rx="0" fill="#566e7a" /><path d="M362 68.0L364 68.0" fill="none" stroke="#bec2a0" stroke-width="0.6" /><rect x="368" y="65.0" width="5" height="14" rx="0" fill="#977961" /><path d="M369 67.0L372 67.0" fill="none" stroke="#bec2a0" stroke-width="0.6" /><rect x="375" y="64.0" width="6" height="15" rx="0" fill="#879386" /><path d="M376 66.0L380 66.0" fill="none" stroke="#bec2a0" stroke-width="0.6" /><rect x="382" y="69.0" width="4" height="10" rx="0" fill="#315a70" /><path d="M383 71.0L385 71.0" fill="none" stroke="#bec2a0" stroke-width="0.6" /><rect x="389" y="68.0" width="5" height="11" rx="0" fill="#b19e72" /><path d="M390 70.0L393 70.0" fill="none" stroke="#bec2a0" stroke-width="0.6" /><rect x="337" y="80.0" width="62" height="3" rx="0" fill="#65706a" /><circle cx="305" cy="28" r="12" fill="#142837" /><circle cx="304" cy="26" r="10" fill="#b4b192" stroke="#617d7b" /><circle cx="304" cy="26" r="7" fill="#233d4d" stroke="#90a69a" /><path d="M304 26L304 21" fill="none" stroke="#d7d8b4" stroke-width="1.2" /><path d="M304 26L309 29" fill="none" stroke="#d7d8b4" stroke-width="1.2" /><circle cx="304" cy="26" r="1.2" fill="#e9db9d" /><path d="M102 0L102 12" fill="none" stroke="#8a958a" stroke-width="1" /><path d="M95 12h14l5 6h-24Z" fill="#769990" stroke="#1b3849" stroke-width="1" /><rect x="94" y="18" width="16" height="2" rx="0" fill="#d4d1a3" /><path d="M94 20L72 84H132L110 20Z" fill="url(#lamplight)" /><path d="M305 0L305 12" fill="none" stroke="#8a958a" stroke-width="1" /><path d="M298 12h14l5 6h-24Z" fill="#769990" stroke="#1b3849" stroke-width="1" /><rect x="297" y="18" width="16" height="2" rx="0" fill="#d4d1a3" /><path d="M297 20L275 84H335L313 20Z" fill="url(#lamplight)" /><ellipse cx="120.0" cy="104" rx="31.919999999999998" ry="4" fill="#081e2d" opacity=".5"/><path d="M92 87h56l7 6H88Z" fill="#9a8564" stroke="#39484b" stroke-width="1" /><rect x="88" y="93" width="67" height="3" rx="0" fill="#5a6257" /><rect x="96" y="96" width="4" height="16" rx="0" fill="#394a4c" /><rect x="144" y="96" width="4" height="16" rx="0" fill="#394a4c" /><path d="M100 105L145 105" fill="none" stroke="#57695d" stroke-width="2" /><path d="M103 83l12.0 2 12.0 -2 3 8 -15.0 2 -15.0 -2Z" fill="#c9c9a5" stroke="#778b7e" stroke-width="0.6" /><path d="M115.0 85L115.0 93" fill="none" stroke="#5b827c" stroke-width="0.7" /><path d="M106 87L112.0 88" fill="none" stroke="#7d9b8c" stroke-width="0.6" /><path d="M118.0 88L125 87" fill="none" stroke="#7d9b8c" stroke-width="0.6" /><ellipse cx="289.5" cy="105" rx="32.489999999999995" ry="4" fill="#081e2d" opacity=".5"/><path d="M261 88h57l7 6H257Z" fill="#9a8564" stroke="#39484b" stroke-width="1" /><rect x="257" y="94" width="68" height="3" rx="0" fill="#5a6257" /><rect x="265" y="97" width="4" height="16" rx="0" fill="#394a4c" /><rect x="314" y="97" width="4" height="16" rx="0" fill="#394a4c" /><path d="M269 106L315 106" fill="none" stroke="#57695d" stroke-width="2" /><path d="M275 84l12.0 2 12.0 -2 3 8 -15.0 2 -15.0 -2Z" fill="#c9c9a5" stroke="#778b7e" stroke-width="0.6" /><path d="M287.0 86L287.0 94" fill="none" stroke="#5b827c" stroke-width="0.7" /><path d="M278 88L284.0 89" fill="none" stroke="#7d9b8c" stroke-width="0.6" /><path d="M290.0 89L297 88" fill="none" stroke="#7d9b8c" stroke-width="0.6" /><rect x="81" y="69" width="17" height="15" rx="0" fill="#866e4e" /><path d="M84 70L83 59" fill="none" stroke="#c99a71" stroke-width="2" /><path d="M87 70L86 59" fill="none" stroke="#9baaa0" stroke-width="2" /><path d="M90 70L89 59" fill="none" stroke="#779db2" stroke-width="2" /><path d="M93 70L92 59" fill="none" stroke="#baac78" stroke-width="2" /><rect x="293" y="45" width="19" height="25" rx="0" fill="#bcbfa0" stroke="#668a85" opacity=".85"/><path d="M296 50L308 50" fill="none" stroke="#577e7e" stroke-width="0.6" /><path d="M296 54L308 54" fill="none" stroke="#577e7e" stroke-width="0.6" /><path d="M296 58L308 58" fill="none" stroke="#577e7e" stroke-width="0.6" /><path d="M296 62L308 62" fill="none" stroke="#577e7e" stroke-width="0.6" /><text x="297" y="57" font-size="5" fill="#285159" font-family="Georgia,serif" >a b c</text><rect x="20" y="78" width="45" height="5" rx="0" fill="#7c8268" /></svg>
